<?xml version="1.0" standalone="no"?>
<!DOCTYPE svg PUBLIC "-//W3C//DTD SVG 20010904//EN"
 "http://www.w3.org/TR/2001/REC-SVG-20010904/DTD/svg10.dtd">
<svg version="1.0" xmlns="http://www.w3.org/2000/svg"
 width="249.000000pt" height="249.000000pt" viewBox="0 0 249.000000 249.000000"
 preserveAspectRatio="xMidYMid meet">
<metadata>
Created by potrace 1.14, written by Peter Selinger 2001-2017
</metadata>
<g transform="translate(0.000000,249.000000) scale(0.100000,-0.100000)"
fill="#000000" stroke="none">
<path d="M424 2472 c4 -12 32 -75 62 -139 30 -65 72 -154 92 -198 20 -44 55
-117 77 -163 l40 -84 630 -229 c347 -126 653 -237 682 -248 61 -24 63 -35 -14
128 -29 62 -53 115 -53 117 0 2 -25 56 -56 121 -30 65 -65 139 -76 165 -19 44
-24 48 -96 76 -85 34 -183 70 -222 82 -14 5 -61 22 -105 38 -44 16 -145 53
-225 82 -177 63 -323 117 -370 135 -19 8 -102 39 -185 68 -82 30 -158 58 -169
62 -15 7 -17 5 -12 -13z"/>
<path d="M705 1245 c0 -322 2 -585 5 -585 12 0 456 163 464 171 11 10 11 818
0 829 -9 8 -449 170 -462 170 -4 0 -7 -263 -7 -585z"/>
<path d="M1730 979 c-179 -65 -325 -119 -325 -119 0 -1 -7 -3 -15 -5 -16 -4
-40 -13 -449 -162 -218 -80 -245 -93 -259 -119 -24 -45 -251 -534 -257 -555
-5 -16 2 -15 77 12 46 16 99 36 118 44 19 7 100 37 180 65 80 28 154 55 165
60 18 7 89 33 510 185 117 42 209 76 287 106 16 7 32 25 41 47 8 21 33 76 56
123 115 245 201 432 199 434 -2 2 -149 -51 -328 -116z"/>
</g>
</svg>
